HIERARCHY
ROOT Hips
{
	OFFSET -3.958830 18.904000 13.208200
	CHANNELS 6 Xposition Yposition Zposition Zrotation Yrotation Xrotation 
	JOINT LHipJoint
	{
		OFFSET 0.000000 0.000000 0.000000
		CHANNELS 3 Zrotation Yrotation Xrotation
		JOINT LeftUpLeg
		{
			OFFSET 1.800000 -1.400000 0.085000
			CHANNELS 3 Zrotation Yrotation Xrotation
			JOINT LeftLeg
			{
				OFFSET 2.215000 -6.000000 0.000000
				CHANNELS 3 Zrotation Yrotation Xrotation
				JOINT LeftFoot
				{
					OFFSET 2.500000 -6.900000 0.000000
					CHANNELS 3 Zrotation Yrotation Xrotation
					JOINT LeftToeBase
					{
						OFFSET 0.200000 -0.500000 1.950000
						CHANNELS 3 Zrotation Yrotation Xrotation
						End Site
						{
							OFFSET 0.000000 0.000000 0.000000
						}
					}
				}
			}
		}
	}
	JOINT RHipJoint
	{
		OFFSET 0.000000 0.000000 0.000000
		CHANNELS 3 Zrotation Yrotation Xrotation
		JOINT RightUpLeg
		{
			OFFSET -1.800000 -1.400000 0.085000
			CHANNELS 3 Zrotation Yrotation Xrotation
			JOINT RightLeg
			{
				OFFSET -2.215000 -6.000000 0.000000
				CHANNELS 3 Zrotation Yrotation Xrotation
				JOINT RightFoot
				{
					OFFSET -2.500000 -6.900000 0.000000
					CHANNELS 3 Zrotation Yrotation Xrotation
					JOINT RightToeBase
					{
						OFFSET -0.200000 -0.500000 1.950000
						CHANNELS 3 Zrotation Yrotation Xrotation
						End Site
						{
							OFFSET 0.000000 0.000000 0.000000
						}
					}
				}
			}
		}
	}
	JOINT LowerBack
	{
		OFFSET 0.000000 0.000000 0.000000
		CHANNELS 3 Zrotation Yrotation Xrotation
		JOINT Spine
		{
			OFFSET -0.087000 1.940000 -0.288900
			CHANNELS 3 Zrotation Yrotation Xrotation
			JOINT Spine1
			{
				OFFSET 0.000000 1.950000 0.060000
				CHANNELS 3 Zrotation Yrotation Xrotation
				JOINT Neck
				{
					OFFSET 0.000000 0.000000 0.000000
					CHANNELS 3 Zrotation Yrotation Xrotation
					JOINT Neck1
					{
						OFFSET 0.000000 1.600000 0.340000
						CHANNELS 3 Zrotation Yrotation Xrotation
						JOINT Head
						{
							OFFSET 0.000000 1.667000 -0.240000
							CHANNELS 3 Zrotation Yrotation Xrotation
							End Site
							{
								OFFSET 0.000000 0.000000 0.000000
							}
						}
					}
				}
				JOINT LeftShoulder
				{
					OFFSET 0.000000 0.000000 0.000000
					CHANNELS 3 Zrotation Yrotation Xrotation
					JOINT LeftArm
					{
						OFFSET 2.700000 1.550000 -0.730000
						CHANNELS 3 Zrotation Yrotation Xrotation
						JOINT LeftForeArm
						{
							OFFSET 5.450000 0.000000 0.000000
							CHANNELS 3 Zrotation Yrotation Xrotation
							JOINT LeftHand
							{
								OFFSET 3.450000 0.000000 0.000000
								CHANNELS 3 Zrotation Yrotation Xrotation
								JOINT LeftHandIndex1
								{
									OFFSET 0.750000 0.000000 0.000000
									CHANNELS 3 Zrotation Yrotation Xrotation
									End Site
									{
										OFFSET 0.000000 0.000000 0.000000
									}
								}
							}
						}
					}
				}
				JOINT RightShoulder
				{
					OFFSET 0.000000 0.000000 0.000000
					CHANNELS 3 Zrotation Yrotation Xrotation
					JOINT RightArm
					{
						OFFSET -2.700000 1.550000 -0.730000
						CHANNELS 3 Zrotation Yrotation Xrotation
						JOINT RightForeArm
						{
							OFFSET -5.450000 0.000000 0.000000
							CHANNELS 3 Zrotation Yrotation Xrotation
							JOINT RightHand
							{
								OFFSET -3.450000 0.000000 0.000000
								CHANNELS 3 Zrotation Yrotation Xrotation
								JOINT RightHandIndex1
								{
									OFFSET -0.750000 0.000000 0.000000
									CHANNELS 3 Zrotation Yrotation Xrotation
									End Site
									{
										OFFSET 0.000000 0.000000 0.000000
									}
								}
							}
						}
					}
				}
			}
		}
	}
}
MOTION
Frames: 13
Frame Time: 0.016667
2.049640 17.323340 -5.613130 -18.876665 82.924233 -36.063103 -15.902471 13.360364 2.808450 6.679865 3.421225 15.959900 -7.128842 7.665604 9.397662 0.527047 5.885607 2.532202 0.741210 0.703210 0.617110 17.751634 -10.365324 2.374238 -11.050032 -2.580099 13.867807 7.379422 -7.247507 10.504376 -1.046601 -5.693611 2.345168 0.346530 -0.219260 0.147640 -2.622601 -2.168435 -6.128227 -0.815497 -0.660948 -8.588943 1.300945 -1.786268 25.125185 3.399307 -2.639876 -15.568966 -11.701152 9.719591 65.507089 -0.126510 5.126800 -5.729610 -14.140572 -21.130663 10.693665 -19.397274 -14.458779 -4.969560 125.236805 -4.938167 -24.696672 -3.378473 3.305234 0.418350 -0.184960 0.375200 0.208480 9.693817 23.863661 9.705877 13.510392 12.676126 -9.871324 -123.045642 4.094681 -20.312930 2.318128 -2.425077 0.081580 0.024320 -0.396100 -0.065670 
1.999110 17.318150 -5.596880 -27.659396 84.984690 -45.649045 -15.837742 13.504152 2.789646 7.096846 3.243713 15.701443 -6.478857 7.715058 10.737167 0.505954 5.891985 2.527510 0.770280 0.749480 0.620420 17.793245 -10.356386 2.393454 -10.857594 -2.669591 14.006663 7.819086 -7.481774 11.384904 -1.051512 -5.732688 2.346355 0.381060 -0.221420 0.120940 -2.181476 -2.738968 -6.165539 -3.443629 -0.916282 -6.941272 3.013749 -2.091782 25.784510 2.988882 -1.971328 -15.309985 -10.340037 8.539164 64.354971 1.365660 4.108000 -7.133870 -13.220841 -21.987691 10.732781 -18.525721 -16.735829 -4.954081 124.839822 -4.422293 -24.218159 -3.359521 3.297961 0.420720 -0.198370 0.372800 0.224920 9.424132 24.219088 9.368692 11.823136 12.364073 -10.858826 -123.148367 2.184648 -17.175003 2.332402 -2.477509 0.072990 0.044150 -0.420010 -0.060370 
1.989820 17.308470 -5.594970 -24.187340 85.139926 -42.318176 -15.806115 13.493291 2.870344 6.793816 3.393708 16.362644 -6.593013 7.616289 9.772443 0.510740 5.912886 2.537040 0.768660 0.763930 0.609980 17.820499 -10.397941 2.337721 -10.685382 -2.523770 13.289770 7.132782 -7.390156 12.428203 -1.028970 -5.663057 2.378860 0.399130 -0.192650 0.118790 -2.136468 -2.837529 -6.178441 -3.742657 -1.053876 -6.590381 3.134427 -2.103170 25.490207 2.674509 -1.839372 -14.944003 -10.008852 8.401876 64.162513 1.394740 4.122010 -7.736260 -12.481314 -21.608202 10.337407 -17.691412 -17.946765 -4.412490 126.190180 -2.574850 -21.038247 -3.379311 3.293427 0.416900 -0.181330 0.374080 0.239890 9.220211 23.688286 8.975035 11.616331 13.147506 -10.435168 -123.843258 1.610342 -16.019890 2.314005 -2.476009 0.059240 0.082580 -0.418510 -0.050460 
1.952460 17.308520 -5.614810 -21.973614 84.686062 -40.618424 -15.814779 13.499516 2.862719 6.676219 3.383861 16.381840 -6.616997 7.731320 10.462986 0.487347 6.010644 2.514006 0.751190 0.727110 0.612430 17.810411 -10.427557 2.311660 -10.885716 -2.487951 13.079513 7.195746 -7.492564 12.945633 -1.010089 -5.706189 2.353044 0.394030 -0.165570 0.146520 -2.146103 -2.779524 -6.169480 -3.052615 -0.479833 -5.311832 2.705166 -1.624781 25.367574 2.934406 -1.153849 -13.991518 -8.344062 7.232903 62.953112 0.109520 4.037630 -7.971240 -13.725868 -21.865649 9.546666 -14.326533 -19.860161 -3.992711 125.882539 -2.609359 -19.199169 -3.452821 3.279826 0.401120 -0.145030 0.348350 0.223830 9.871659 23.348678 8.503629 10.280825 13.251194 -10.522357 -124.724944 0.504351 -13.646523 2.299961 -2.512101 0.050090 0.083440 -0.387410 -0.062520 
1.867250 17.309650 -5.621990 -22.987443 84.524089 -42.235489 -15.769122 13.663792 2.837023 6.530515 2.999891 14.972490 -5.975000 7.852404 13.049864 0.402567 6.058927 2.471605 0.685380 0.610350 0.593210 17.809510 -10.489333 2.374645 -10.648158 -2.487109 12.824441 7.059959 -7.527149 13.385611 -0.977520 -5.677867 2.325132 0.337990 -0.154080 0.174300 -1.904196 -3.171505 -6.282897 -3.331676 -0.775887 -2.715247 2.707300 -1.747144 25.446406 3.022168 -1.110905 -14.510370 -8.355711 7.543331 62.302036 -0.005620 4.386690 -7.481450 -13.807068 -23.437045 9.916434 -12.607679 -18.655645 -5.350876 126.218108 -1.309124 -17.727120 -3.536735 3.303819 0.427590 -0.133700 0.314080 0.159230 9.736238 24.913161 8.994283 9.169348 12.531940 -11.634920 -124.849068 -0.565370 -12.488167 2.301930 -2.513651 0.027970 0.057830 -0.299340 -0.102970 
1.858110 17.320180 -5.641430 -12.289975 80.851230 -31.426649 -15.802076 13.606599 2.910475 6.075575 3.198943 15.439014 -6.896532 8.073949 12.500948 0.459566 6.132565 2.459329 0.631150 0.537320 0.558780 17.779214 -10.560789 2.295002 -10.644428 -2.302539 11.576329 5.995185 -7.235224 14.090257 -0.908632 -5.545706 2.366815 0.287040 -0.132860 0.179760 -2.382054 -2.651604 -6.293544 -0.009222 -0.664915 -2.586045 0.636889 -1.595895 25.421156 3.306349 -2.003401 -15.017843 -9.911601 8.833789 61.439601 -0.235500 5.224780 -5.445710 -14.114111 -23.545299 10.273119 -12.869642 -15.328243 -6.584382 125.415617 -2.215679 -19.424436 -3.560863 3.327254 0.407510 -0.117690 0.285270 0.144940 9.486375 25.712812 9.654805 10.130332 13.228907 -11.137188 -124.818467 1.051710 -16.162167 2.305496 -2.473989 0.026760 0.030070 -0.271790 -0.099940 
1.801210 17.329600 -5.658690 -5.193580 76.455849 -24.713409 -15.827389 13.549007 2.979509 5.218248 3.569310 15.437211 -7.969129 8.377655 12.499650 0.525790 6.149305 2.461264 0.625420 0.531180 0.553030 17.746698 -10.667407 2.215395 -11.289064 -1.975814 10.163624 5.283535 -6.988949 14.722695 -0.856545 -5.417106 2.413991 0.265500 -0.140890 0.177900 -2.738319 -2.323230 -6.373206 2.299960 -0.034226 -0.964725 -0.330299 -1.065269 25.908908 3.515472 -3.091755 -15.538650 -11.810951 10.174487 59.523812 -0.350380 6.079990 -5.003770 -13.814628 -23.927405 10.758282 -13.139281 -11.969313 -8.288259 124.335067 -3.032416 -21.427203 -3.544011 3.358951 0.395920 -0.127270 0.288730 0.155130 8.801235 27.293682 10.212339 9.821046 14.370695 -11.346851 -123.557368 2.223060 -19.008716 2.338221 -2.442391 0.042110 0.005670 -0.290600 -0.088020 
1.735780 17.325910 -5.682090 -6.205825 76.641967 -25.709392 -15.814733 13.608465 2.960342 5.215329 3.341008 14.517166 -7.697717 8.323659 12.902281 0.494374 6.186209 2.501856 0.510540 0.380220 0.465920 17.752403 -10.692617 2.196461 -10.965329 -1.937365 9.510985 5.114103 -7.026215 15.592270 -0.756420 -5.467311 2.416079 0.212680 -0.019170 0.187490 -2.749365 -2.393632 -6.380464 1.849899 0.095243 0.477623 0.272567 -1.164343 26.639160 3.026016 -2.269312 -14.621910 -9.130376 8.096427 54.888932 -1.287840 5.625410 -2.078960 -11.219618 -23.089095 10.519686 -13.001321 -14.088543 -7.505648 120.496631 -7.103717 -26.237602 -3.655993 3.303871 0.313650 -0.025420 0.165690 0.143320 6.872280 25.648730 9.664527 11.948424 15.154095 -11.424510 -121.546718 3.940377 -22.232877 2.295694 -2.446301 -0.009530 0.002680 -0.219870 -0.080070 
1.661370 17.338860 -5.711180 -4.711042 73.820552 -24.220493 -15.816160 13.644960 2.914027 4.709538 3.053143 12.576043 -7.978869 8.676267 15.115186 0.422226 6.268875 2.496420 0.409420 0.238340 0.403850 17.726591 -10.776946 2.206909 -11.412634 -1.866335 8.502223 5.466054 -7.085369 15.612331 -0.685538 -5.401965 2.450036 0.159450 0.060250 0.160950 -3.198210 -2.190148 -6.495258 4.313828 0.359251 2.666804 -0.779314 -0.779526 26.679177 2.553003 -3.259621 -14.622039 -10.952509 8.096324 51.493294 -0.671460 4.632790 -2.138370 -9.207052 -22.163944 10.187119 -13.467439 -13.327337 -7.871009 115.095008 -11.088026 -29.676617 -3.704378 3.196486 0.329630 -0.001560 0.097480 0.110360 5.586640 25.310710 10.231194 12.900921 14.093670 -11.806121 -119.076145 8.586828 -29.635643 2.256892 -2.275341 -0.082350 0.064920 -0.131730 -0.096060 
1.580190 17.357170 -5.748580 -4.791620 72.880329 -24.386652 -15.801453 13.687190 2.884815 4.757852 2.779511 11.258837 -8.408618 8.944807 16.281025 0.307321 6.403847 2.449013 0.280100 0.092780 0.289700 17.732881 -10.767483 2.233828 -11.339936 -1.900911 7.844291 5.650060 -7.031982 14.988445 -0.617589 -5.295906 2.491179 0.121630 0.159230 0.131540 -3.352650 -2.253983 -6.579416 5.127922 0.591686 4.939875 -0.976698 -0.355495 26.905983 1.626268 -3.413025 -14.157672 -11.145497 7.221085 48.670280 1.890180 2.535530 -3.937660 -6.864613 -20.895592 9.312857 -12.698660 -14.168168 -7.630824 106.675333 -17.350030 -33.059267 -3.769530 3.021696 0.374020 0.021610 0.032810 0.059760 4.776655 23.865277 10.560279 13.512354 11.306594 -12.536899 -115.028938 15.733687 -38.209900 2.190504 -2.013139 -0.179260 0.163030 0.007320 -0.109190 
1.492370 17.356520 -5.786550 -5.033700 72.841040 -23.435624 -15.785048 13.785038 2.859795 4.528462 2.233711 8.414470 -8.458450 8.950411 17.557705 0.225122 6.321610 2.458777 0.250150 0.033230 0.270980 17.719236 -10.858241 2.190964 -10.848433 -1.695660 5.173956 5.407685 -6.902351 16.238053 -0.505420 -5.135876 2.522635 0.110740 0.186700 0.158640 -3.369230 -2.311055 -6.565456 4.344887 0.663978 6.285502 0.050299 -0.375035 25.996238 0.709836 -2.527380 -12.952571 -8.963122 5.661079 46.627398 1.451090 2.035790 -2.560790 -1.961147 -16.253251 7.556527 -15.299766 -18.431401 -5.176448 95.244604 -24.175125 -33.545266 -3.772571 3.044856 0.321820 0.070320 -0.030240 0.038370 1.384704 18.519754 9.584507 18.305459 12.428992 -10.050081 -111.298771 24.523306 -47.217357 2.123374 -1.901844 -0.183540 0.113280 0.040620 -0.119550 
1.392540 17.382840 -5.820610 -4.483764 73.051915 -21.791276 -15.746196 13.953113 2.903215 3.969620 1.855501 5.729127 -8.377796 8.791888 18.266873 0.275152 6.046719 2.547467 0.313590 0.191080 0.291720 17.714618 -10.942245 2.110005 -10.437800 -1.448968 2.011665 4.560824 -6.611661 18.197004 -0.449201 -4.883772 2.613693 0.158640 0.167190 0.190220 -3.150073 -2.643770 -6.553527 2.745781 0.595895 8.334144 1.412665 -0.534112 24.760811 -0.020391 -2.362548 -11.611135 -8.487527 5.180482 44.487980 -0.216450 2.883620 -4.176240 1.052730 -11.918714 5.681153 -15.794073 -21.227552 -3.320509 80.261734 -32.740524 -31.441289 -3.714852 2.984045 0.212720 0.100010 0.016920 0.074140 -0.483203 14.271260 8.293814 19.716130 13.554209 -7.601175 -106.555217 34.057149 -53.821227 2.111230 -1.736416 -0.079310 0.090970 -0.039620 -0.055230 
1.278850 17.417100 -5.877300 -5.882617 73.288888 -21.414611 -15.705971 14.102773 2.916980 3.782825 1.202706 2.281468 -8.132434 8.611110 19.351927 0.208242 5.828556 2.613766 0.323880 0.226730 0.286830 17.702388 -11.022364 2.077058 -9.545736 -1.037361 -2.524942 4.561191 -6.539300 20.601558 -0.364270 -4.624377 2.683153 0.181810 0.192490 0.182050 -3.168008 -2.774222 -6.585332 2.526620 0.110779 8.879102 1.974914 -1.050465 22.614463 -0.605871 -2.048865 -11.124914 -8.147044 5.979721 45.536896 0.514870 3.712650 -3.175410 3.276549 -10.477425 4.597526 -13.909485 -21.882782 -1.902364 57.357702 -41.658454 -23.356850 -3.589415 2.916051 0.185230 0.121070 0.013650 0.097590 -1.677898 12.368295 7.613979 18.819388 14.123095 -5.432439 -96.590873 46.620650 -55.150697 1.977737 -1.233453 -0.079890 0.105760 -0.062520 -0.037970 
